<svg width="16" height="37" viewBox="0 0 16 37" fill="none" xmlns="http://www.w3.org/2000/svg">
<path fill-rule="evenodd" clip-rule="evenodd" d="M4.9456 27.7515V27.2964L5.44205 27.1723C6.3522 26.9241 6.22809 26.0966 6.26946 25.8484V20.3875L9.57911 22.2078V25.8484C9.57911 26.0966 9.49637 26.9654 10.4065 27.1723L10.8616 27.2964V27.7515H4.9456Z" fill="#003B71"/>
<path fill-rule="evenodd" clip-rule="evenodd" d="M9.57957 7.06624V16.9124L6.26993 15.0921V7.06624C6.26993 6.81802 6.35267 5.94923 5.44251 5.74238L4.98744 5.61827V5.16319H10.9034V5.61827L10.407 5.74238C9.49683 5.9906 9.62094 6.81802 9.57957 7.06624Z" fill="#003B71"/>
<path fill-rule="evenodd" clip-rule="evenodd" d="M6.02055 2.06032C6.02055 1.02605 6.84796 0.157272 7.9236 0.157272C8.99923 0.157272 9.82665 0.984684 9.82665 2.06032C9.82665 3.13595 8.99923 3.96337 7.9236 3.96337C6.84796 3.96337 6.02055 3.13595 6.02055 2.06032Z" fill="#003B71"/>
<path fill-rule="evenodd" clip-rule="evenodd" d="M3.58019 29.8201C2.67003 29.6132 2.2977 29.8201 2.0081 29.9855C1.67714 30.2751 1.42892 30.6061 1.42892 30.6061H1.01521V24.6074H1.47029C1.47029 24.6074 1.55303 25.0211 1.63577 25.2693C2.04947 26.5518 3.37333 28.248 3.37333 28.248C6.60024 31.268 10.1995 30.151 10.1995 30.151C13.2195 29.0754 13.5919 26.3863 12.8472 24.6901C12.1025 22.9525 10.1581 22.0424 10.1581 22.0424C10.1581 22.0424 6.64161 20.0566 5.64871 19.5188C4.65582 18.981 4.07663 18.6914 3.24922 18.0708C1.63577 16.8711 0.766986 15.5472 0.766986 13.4373C0.766986 11.3274 2.79414 8.22462 5.77283 7.81091V8.47284C4.07663 8.76244 2.75277 10.0863 2.75277 11.6997C2.75277 13.3132 3.20785 13.5614 3.91115 14.1406C3.91115 14.1406 4.32486 14.5957 5.27638 15.1749C6.18653 15.7541 9.82714 17.7399 9.82714 17.7399C9.82714 17.7399 11.9784 18.8982 12.6817 19.436C13.0127 19.6843 13.4264 20.0566 13.4264 20.0566C14.7089 21.215 15.5363 22.9112 15.5363 24.7729C15.5363 26.6345 15.4535 25.8899 15.3294 26.3863C15.3294 26.3863 14.4606 29.5718 11.2337 30.6475C11.2337 30.6475 10.1995 31.0612 9.12384 31.1439C9.82714 31.5576 10.2408 32.3437 10.1995 33.1297C10.1167 34.2467 9.3307 35.5292 8.46191 36.2739C8.37917 36.3566 7.88273 36.4807 7.71724 36.3566C7.6345 36.2739 7.9241 36.067 8.29643 35.5292C8.66877 34.9914 8.71014 34.6604 8.75151 34.4949C8.75151 34.3295 8.75151 34.2053 8.66877 34.2053C8.54466 34.2053 8.29643 34.2881 8.08958 34.3295C7.84136 34.3708 7.55176 34.3708 7.55176 34.3708C6.68298 34.2881 6.14516 33.4607 6.14516 32.6746C6.14516 31.8886 6.60024 31.3094 7.26217 31.0198C6.47613 30.8957 5.8142 30.6475 4.98679 30.3165C4.98679 30.3165 3.91115 29.9442 3.7043 29.9028H3.62156L3.58019 29.8201Z" fill="#003B71"/>
<path fill-rule="evenodd" clip-rule="evenodd" d="M13.758 13.7269H13.2616V13.3546C13.1375 13.065 13.0547 12.5271 12.972 12.3203C12.8892 12.0307 12.5583 11.2447 12.1446 10.6655C11.7309 10.0863 11.3585 9.75531 11.1517 9.58983C10.9034 9.42435 10.6139 9.17613 10.0347 8.88653V8.18323L11.2758 8.67968C11.2758 8.67968 11.855 8.9279 12.31 8.88653C12.7238 8.84516 12.8892 8.76242 13.0961 8.47283L13.3029 8.14186H13.7166V13.7683L13.758 13.7269Z" fill="#003B71"/>
</svg>
